# xmcd CD database file
#
# Track frame offsets:
#	150
#	17010
#	37687
#	52292
#	69812
#	93585
#	106410
#	129955
#	160927
#	175995
#	197250
#	219385
#	232982
#	248862
#	268732
#
# Disc length: 3712 seconds
#
# Revision: 0
# Processed by: cddbd v1.5.2PL0 Copyright (c) Steve Scherf et al.
# Submitted via: CDex 1.51
#
DISCID=c20e7e0f
DTITLE=WYNTON MARSALIS - Mr. Jelly Lord - Standard Time Vol. 6
DYEAR=1999
DGENRE=Jazz
TTITLE0=Red Hot Pepper
TTITLE1=New Orleans Bump
TTITLE2=King Porter Stomp
TTITLE3=The Pearls
TTITLE4=Deep Creek
TTITLE5=Mamanita
TTITLE6=Sidewalk Blues
TTITLE7=Jungle Blues
TTITLE8=Big Lip Blues
TTITLE9=Dead Man Blues
TTITLE10=Smokehouse Blues
TTITLE11=Billy Goat Stomp
TTITLE12=Courthouse Bump
TTITLE13=Black Bottom Stomp
TTITLE14=Tom Cat Blues
EXTD=YEAR: 1999
EXTT0=
EXTT1=
EXTT2=
EXTT3=
EXTT4=
EXTT5=
EXTT6=
EXTT7=
EXTT8=
EXTT9=
EXTT10=
EXTT11=
EXTT12=
EXTT13=
EXTT14=
PLAYORDER=
